<svg width="168" height="52" viewBox="0 0 168 52" fill="none" xmlns="http://www.w3.org/2000/svg">
<path d="M50 15.0323V13.1865L48.4538 14.1946L36.4538 22.0186L36 22.3145V22.8563V33.9653V46V47.0432L37.0423 46.9991L49.0423 46.4914L50 46.4509V45.4923V34.8313V24.6779V15.0323Z" fill="white" stroke="#2832bd" stroke-width="2"/>
<path d="M40.25 25.9212V24.4567L46.75 20.1433V21.6078L40.25 25.9212Z" fill="#2832bd" stroke="#2832bd" stroke-width="0.5"/>
<path d="M40.25 31.0825V29.618L46.75 25.3047V26.7691L40.25 31.0825Z" fill="#2832bd" stroke="#2832bd" stroke-width="0.5"/>
<path d="M40.25 36.2437V34.7793L46.75 30.4659V31.9304L40.25 36.2437Z" fill="#2832bd" stroke="#2832bd" stroke-width="0.5"/>
<path d="M40.25 41.405V39.9406L46.75 35.6272V37.0917L40.25 41.405Z" fill="#2832bd" stroke="#2832bd" stroke-width="0.5"/>
<path d="M22.9285 14.1617L22.3781 13.8038L21.8309 14.1664L9.44761 22.3723L9 22.6689V23.2059V34.1471V46V47H10H35H36V46V23.2059V22.6634L35.5452 22.3676L22.9285 14.1617Z" fill="white" stroke="#2832bd" stroke-width="2"/>
<line x1="22.5" y1="14.9975" x2="22.5" y2="46.0025" stroke="#2832bd" stroke-width="2"/>
<path d="M32.75 27.8317V25.102L26.25 20.9897V23.7195L32.75 27.8317Z" fill="#2832bd" stroke="#2832bd" stroke-width="0.5"/>
<path d="M12.25 38.9032V37.2805L18.75 33.1683V34.7909L12.25 38.9032Z" fill="#2832bd" stroke="#2832bd" stroke-width="0.5"/>
<path d="M12.25 32.8207V31.3159L18.75 27.4401V28.945L12.25 32.8207Z" fill="#2832bd" stroke="#2832bd" stroke-width="0.5"/>
<path d="M12.25 26.5692V25.1451L18.75 21.4308V22.8549L12.25 26.5692Z" fill="#2832bd" stroke="#2832bd" stroke-width="0.5"/>
<path d="M47.209 2.77196L55.5195 4.48521L53.8063 12.7957L47.209 2.77196Z" fill="#2832bd"/>
<ellipse cx="29.5" cy="47" rx="26.5" ry="2" fill="#2832bd"/>
<path d="M32.75 33.5692V31.1451L26.25 27.4308V29.8549L32.75 33.5692Z" fill="#2832bd" stroke="#2832bd" stroke-width="0.5"/>
<path d="M32.75 39.5692V37.1451L26.25 33.4308V35.8549L32.75 39.5692Z" fill="#2832bd" stroke="#2832bd" stroke-width="0.5"/>
<path d="M22.5 7.5L35.5 16L51 6.31429L52.5 8.31429L35.5 19L22.5 10.5L5 22L3.5 20L22.5 7.5Z" fill="#2832bd"/>
<path d="M80.5393 7.792V11.824H68.8393V19.204H79.0273V23.2H68.8393V34H64.6273V7.792H80.5393ZM88.7845 18.772V34H84.7525V18.772H88.7845ZM84.5725 13.336C84.5725 12.736 84.8125 12.232 85.2925 11.824C85.7725 11.392 86.3125 11.176 86.9125 11.176C87.4885 11.176 88.0045 11.392 88.4605 11.824C88.9405 12.232 89.1805 12.736 89.1805 13.336C89.1805 13.936 88.9405 14.44 88.4605 14.848C88.0045 15.256 87.4885 15.46 86.9125 15.46C86.3125 15.46 85.7725 15.256 85.2925 14.848C84.8125 14.44 84.5725 13.936 84.5725 13.336ZM103.747 34L99.895 28.96L96.331 34H92.263L97.879 26.368L92.083 18.772H97.087L100.795 23.668L103.891 18.772H107.923L102.667 26.116L108.607 34H103.747ZM110.422 26.224C110.422 24.712 110.782 23.332 111.502 22.084C112.246 20.836 113.266 19.864 114.562 19.168C115.858 18.448 117.334 18.088 118.99 18.088C120.646 18.088 122.11 18.448 123.382 19.168C124.678 19.864 125.674 20.836 126.37 22.084C127.066 23.308 127.414 24.688 127.414 26.224C127.414 27.76 127.066 29.152 126.37 30.4C125.674 31.624 124.678 32.596 123.382 33.316C122.11 34.036 120.634 34.396 118.954 34.396C117.322 34.396 115.858 34.072 114.562 33.424C113.266 32.752 112.246 31.804 111.502 30.58C110.782 29.332 110.422 27.88 110.422 26.224ZM114.49 26.26C114.49 27.628 114.91 28.78 115.75 29.716C116.59 30.628 117.634 31.084 118.882 31.084C120.178 31.084 121.234 30.628 122.05 29.716C122.89 28.804 123.31 27.652 123.31 26.26C123.31 24.868 122.89 23.716 122.05 22.804C121.234 21.868 120.178 21.4 118.882 21.4C117.634 21.4 116.59 21.88 115.75 22.84C114.91 23.776 114.49 24.916 114.49 26.26ZM135.575 22.3C135.983 21.484 136.559 20.752 137.303 20.104C138.047 19.456 138.803 18.964 139.571 18.628C140.363 18.268 141.023 18.088 141.551 18.088L141.371 22.12C140.267 22.024 139.283 22.228 138.419 22.732C137.555 23.212 136.883 23.884 136.403 24.748C135.923 25.588 135.683 26.488 135.683 27.448V34H131.651V18.772H135.287L135.575 22.3ZM161.204 18.772V34H157.172V31.804C156.62 32.452 155.876 33.052 154.94 33.604C154.004 34.132 152.912 34.396 151.664 34.396C150.2 34.396 148.892 34.096 147.74 33.496C146.588 32.872 145.676 31.96 145.004 30.76C144.332 29.56 143.996 28.108 143.996 26.404C143.996 24.748 144.344 23.296 145.04 22.048C145.736 20.776 146.66 19.804 147.812 19.132C148.988 18.436 150.272 18.088 151.664 18.088C154.136 18.088 155.984 19 157.208 20.824L157.496 18.772H161.204ZM152.78 31.084C153.884 31.084 154.808 30.808 155.552 30.256C156.32 29.68 156.86 28.876 157.172 27.844V24.532C156.884 23.596 156.32 22.84 155.48 22.264C154.664 21.688 153.716 21.4 152.636 21.4C151.364 21.4 150.284 21.856 149.396 22.768C148.508 23.656 148.064 24.796 148.064 26.188C148.064 27.1 148.28 27.928 148.712 28.672C149.144 29.416 149.72 30.004 150.44 30.436C151.16 30.868 151.94 31.084 152.78 31.084ZM67.2587 44.29H64.7567L64.0637 46H63.1997L66.0437 39.223H66.0977L68.9417 46H67.9337L67.2587 44.29ZM66.9617 43.534L66.0347 41.158L65.0717 43.534H66.9617ZM74.5593 39.493V40.33H71.5713V42.4H74.1903V43.237H71.5713V46H70.6983V39.493H74.5593ZM80.3991 39.493V40.33H77.4111V42.4H80.0301V43.237H77.4111V46H76.5381V39.493H80.3991ZM85.1824 44.29H82.6804L81.9874 46H81.1234L83.9674 39.223H84.0214L86.8654 46H85.8574L85.1824 44.29ZM84.8854 43.534L83.9584 41.158L82.9954 43.534H84.8854ZM82.6444 38.431C82.6444 38.299 82.6924 38.188 82.7884 38.098C82.8844 38.002 82.9954 37.954 83.1214 37.954C83.2414 37.954 83.3494 38.002 83.4454 38.098C83.5414 38.188 83.5894 38.299 83.5894 38.431C83.5894 38.563 83.5414 38.677 83.4454 38.773C83.3494 38.863 83.2414 38.908 83.1214 38.908C82.9954 38.908 82.8844 38.863 82.7884 38.773C82.6924 38.683 82.6444 38.569 82.6444 38.431ZM84.3274 38.431C84.3274 38.299 84.3754 38.188 84.4714 38.098C84.5674 38.002 84.6784 37.954 84.8044 37.954C84.9244 37.954 85.0324 38.002 85.1284 38.098C85.2244 38.188 85.2724 38.299 85.2724 38.431C85.2724 38.563 85.2244 38.677 85.1284 38.773C85.0324 38.863 84.9244 38.908 84.8044 38.908C84.6784 38.908 84.5674 38.863 84.4714 38.773C84.3754 38.683 84.3274 38.569 84.3274 38.431ZM92.204 46L90.674 43.597C90.626 43.603 90.554 43.606 90.458 43.606H89.495V46H88.622V39.493H90.359C90.803 39.493 91.199 39.571 91.547 39.727C91.895 39.883 92.168 40.114 92.366 40.42C92.564 40.72 92.663 41.083 92.663 41.509C92.663 41.911 92.573 42.28 92.393 42.616C92.219 42.952 91.949 43.207 91.583 43.381L93.221 46H92.204ZM90.44 42.76C90.908 42.76 91.244 42.637 91.448 42.391C91.658 42.145 91.763 41.863 91.763 41.545C91.763 41.353 91.718 41.164 91.628 40.978C91.544 40.792 91.406 40.639 91.214 40.519C91.028 40.393 90.791 40.33 90.503 40.33H89.495V42.76H90.44ZM98.4694 40.654C98.2354 40.528 97.9864 40.426 97.7224 40.348C97.4584 40.27 97.2094 40.231 96.9754 40.231C96.6214 40.231 96.3394 40.312 96.1294 40.474C95.9254 40.63 95.8234 40.846 95.8234 41.122C95.8234 41.392 95.9434 41.614 96.1834 41.788C96.4294 41.956 96.7774 42.124 97.2274 42.292C97.5634 42.412 97.8454 42.544 98.0734 42.688C98.3074 42.826 98.4994 43.021 98.6494 43.273C98.8054 43.519 98.8834 43.834 98.8834 44.218C98.8834 44.566 98.7964 44.881 98.6224 45.163C98.4484 45.445 98.1994 45.667 97.8754 45.829C97.5574 45.991 97.1824 46.072 96.7504 46.072C96.3484 46.072 95.9614 46.009 95.5894 45.883C95.2174 45.751 94.8904 45.586 94.6084 45.388L94.9954 44.695C95.2174 44.863 95.4844 45.007 95.7964 45.127C96.1084 45.241 96.3994 45.298 96.6694 45.298C97.0174 45.298 97.3204 45.208 97.5784 45.028C97.8424 44.848 97.9744 44.581 97.9744 44.227C97.9744 43.927 97.8634 43.69 97.6414 43.516C97.4254 43.336 97.1194 43.168 96.7234 43.012C96.3574 42.874 96.0514 42.739 95.8054 42.607C95.5654 42.475 95.3584 42.295 95.1844 42.067C95.0104 41.833 94.9234 41.542 94.9234 41.194C94.9234 40.684 95.1004 40.273 95.4544 39.961C95.8144 39.643 96.2794 39.475 96.8494 39.457C97.5514 39.457 98.2024 39.631 98.8024 39.979L98.4694 40.654ZM101.674 43.696C101.674 43.984 101.743 44.245 101.881 44.479C102.019 44.707 102.205 44.89 102.439 45.028C102.679 45.16 102.943 45.226 103.231 45.226C103.531 45.226 103.801 45.16 104.041 45.028C104.287 44.896 104.479 44.713 104.617 44.479C104.755 44.245 104.824 43.984 104.824 43.696V39.493H105.679V43.723C105.679 44.185 105.571 44.596 105.355 44.956C105.139 45.31 104.845 45.586 104.473 45.784C104.101 45.976 103.687 46.072 103.231 46.072C102.781 46.072 102.37 45.976 101.998 45.784C101.626 45.586 101.332 45.31 101.116 44.956C100.906 44.596 100.801 44.185 100.801 43.723V39.493H101.674V43.696ZM111.856 39.493V40.33H110.11V46H109.237V40.33H107.536V39.493H111.856ZM118.967 39.493L116.096 46.306L113.225 39.493H114.26L116.132 44.182L117.941 39.493H118.967ZM125.03 39.493V40.33H121.673V42.31H124.67V43.147H121.673V45.154H125.156V46H120.8V39.493H125.03ZM131.999 45.514C131.789 45.652 131.522 45.781 131.198 45.901C130.88 46.015 130.532 46.072 130.154 46.072C129.488 46.072 128.9 45.925 128.39 45.631C127.886 45.337 127.496 44.941 127.22 44.443C126.95 43.945 126.815 43.396 126.815 42.796C126.815 42.154 126.953 41.578 127.229 41.068C127.505 40.552 127.886 40.15 128.372 39.862C128.864 39.568 129.419 39.421 130.037 39.421C130.403 39.421 130.745 39.469 131.063 39.565C131.381 39.661 131.666 39.787 131.918 39.943L131.567 40.762C131.069 40.426 130.568 40.258 130.064 40.258C129.644 40.258 129.254 40.369 128.894 40.591C128.54 40.813 128.255 41.116 128.039 41.5C127.829 41.878 127.724 42.295 127.724 42.751C127.724 43.219 127.82 43.642 128.012 44.02C128.21 44.398 128.489 44.695 128.849 44.911C129.215 45.121 129.635 45.226 130.109 45.226C130.691 45.226 131.198 45.061 131.63 44.731L131.999 45.514ZM134.873 42.436L134.981 42.265L137.645 39.493H138.77L136.079 42.283L138.923 46H137.816L135.44 42.841L134.891 43.372L134.9 46H134.009V39.493H134.9V42.112L134.873 42.436ZM141.54 39.493V45.154H144.852V46H140.667V39.493H141.54ZM147.678 39.493V46H146.805V39.493H147.678ZM155.757 39.493V46.216H155.73L150.951 41.365L150.969 46H150.087V39.295H150.132L154.902 44.2L154.884 39.493H155.757ZM163.271 45.442C163.073 45.598 162.761 45.742 162.335 45.874C161.915 46.006 161.525 46.072 161.165 46.072C160.487 46.072 159.89 45.934 159.374 45.658C158.858 45.376 158.459 44.992 158.177 44.506C157.901 44.02 157.763 43.474 157.763 42.868C157.763 42.16 157.913 41.548 158.213 41.032C158.513 40.51 158.918 40.111 159.428 39.835C159.938 39.559 160.496 39.421 161.102 39.421C161.468 39.421 161.813 39.466 162.137 39.556C162.461 39.64 162.752 39.754 163.01 39.898L162.722 40.699C162.53 40.591 162.287 40.498 161.993 40.42C161.705 40.336 161.444 40.294 161.21 40.294C160.706 40.294 160.259 40.396 159.869 40.6C159.485 40.804 159.188 41.095 158.978 41.473C158.768 41.851 158.663 42.292 158.663 42.796C158.663 43.264 158.768 43.681 158.978 44.047C159.188 44.413 159.485 44.698 159.869 44.902C160.253 45.1 160.691 45.199 161.183 45.199C161.411 45.199 161.633 45.178 161.849 45.136C162.065 45.088 162.245 45.022 162.389 44.938V43.651H161.093V42.814H163.271V45.442Z" fill="#2832bd"/>
</svg>
